<mxfile host="app.diagrams.net" modified="2024-03-10T02:15:42.040Z" agent="Mozilla/5.0 (Windows NT 10.0; Win64; x64) AppleWebKit/537.36 (KHTML, like Gecko) Chrome/121.0.0.0 Safari/537.36 OPR/107.0.0.0" etag="F4BZ1TjWI6aO4gMAtzbp" version="23.1.1" type="device">
  <diagram id="C5RBs43oDa-KdzZeNtuy" name="Page-1">
    <mxGraphModel dx="1393" dy="800" grid="1" gridSize="10" guides="1" tooltips="1" connect="1" arrows="1" fold="1" page="1" pageScale="1" pageWidth="2336" pageHeight="1654" math="0" shadow="0">
      <root>
        <mxCell id="WIyWlLk6GJQsqaUBKTNV-0" />
        <mxCell id="WIyWlLk6GJQsqaUBKTNV-1" parent="WIyWlLk6GJQsqaUBKTNV-0" />
        <mxCell id="JRfdcALgTeEqsGQP0QS9-0" value="Beamer" style="swimlane;fontStyle=1;align=center;verticalAlign=top;childLayout=stackLayout;horizontal=1;startSize=26;horizontalStack=0;resizeParent=1;resizeParentMax=0;resizeLast=0;collapsible=1;marginBottom=0;whiteSpace=wrap;html=1;" vertex="1" parent="WIyWlLk6GJQsqaUBKTNV-1">
          <mxGeometry x="390" y="1086" width="440" height="140" as="geometry" />
        </mxCell>
        <mxCell id="JRfdcALgTeEqsGQP0QS9-1" value="- charged: boolean" style="text;strokeColor=none;fillColor=none;align=left;verticalAlign=top;spacingLeft=4;spacingRight=4;overflow=hidden;rotatable=0;points=[[0,0.5],[1,0.5]];portConstraint=eastwest;whiteSpace=wrap;html=1;" vertex="1" parent="JRfdcALgTeEqsGQP0QS9-0">
          <mxGeometry y="26" width="440" height="26" as="geometry" />
        </mxCell>
        <mxCell id="JRfdcALgTeEqsGQP0QS9-2" value="" style="line;strokeWidth=1;fillColor=none;align=left;verticalAlign=middle;spacingTop=-1;spacingLeft=3;spacingRight=3;rotatable=0;labelPosition=right;points=[];portConstraint=eastwest;strokeColor=inherit;" vertex="1" parent="JRfdcALgTeEqsGQP0QS9-0">
          <mxGeometry y="52" width="440" height="8" as="geometry" />
        </mxCell>
        <mxCell id="JRfdcALgTeEqsGQP0QS9-3" value="+ Beamer(name: String, description: String, weight: double, charged: boolean)&lt;br&gt;+ isCharged(): boolean&lt;br&gt;+ chargeBeamer(): boolean&lt;br&gt;+ fireBeamer(): boolean" style="text;strokeColor=none;fillColor=none;align=left;verticalAlign=top;spacingLeft=4;spacingRight=4;overflow=hidden;rotatable=0;points=[[0,0.5],[1,0.5]];portConstraint=eastwest;whiteSpace=wrap;html=1;" vertex="1" parent="JRfdcALgTeEqsGQP0QS9-0">
          <mxGeometry y="60" width="440" height="80" as="geometry" />
        </mxCell>
        <mxCell id="JRfdcALgTeEqsGQP0QS9-6" value="Command" style="swimlane;fontStyle=1;align=center;verticalAlign=top;childLayout=stackLayout;horizontal=1;startSize=26;horizontalStack=0;resizeParent=1;resizeParentMax=0;resizeLast=0;collapsible=1;marginBottom=0;whiteSpace=wrap;html=1;" vertex="1" parent="WIyWlLk6GJQsqaUBKTNV-1">
          <mxGeometry x="50" y="1263" width="300" height="174" as="geometry" />
        </mxCell>
        <mxCell id="JRfdcALgTeEqsGQP0QS9-7" value="- commandWord: String&lt;br&gt;- secondWord: String" style="text;strokeColor=none;fillColor=none;align=left;verticalAlign=top;spacingLeft=4;spacingRight=4;overflow=hidden;rotatable=0;points=[[0,0.5],[1,0.5]];portConstraint=eastwest;whiteSpace=wrap;html=1;" vertex="1" parent="JRfdcALgTeEqsGQP0QS9-6">
          <mxGeometry y="26" width="300" height="46" as="geometry" />
        </mxCell>
        <mxCell id="JRfdcALgTeEqsGQP0QS9-8" value="" style="line;strokeWidth=1;fillColor=none;align=left;verticalAlign=middle;spacingTop=-1;spacingLeft=3;spacingRight=3;rotatable=0;labelPosition=right;points=[];portConstraint=eastwest;strokeColor=inherit;" vertex="1" parent="JRfdcALgTeEqsGQP0QS9-6">
          <mxGeometry y="72" width="300" height="8" as="geometry" />
        </mxCell>
        <mxCell id="JRfdcALgTeEqsGQP0QS9-9" value="+ Command(firstWord: String, secondWord: String)&lt;br&gt;+ getCommandWord(): String&lt;br&gt;+ getSecondWord(): String&lt;br&gt;+ isUnknown(): boolean&lt;br&gt;+ hasSecondWord((): boolean" style="text;strokeColor=none;fillColor=none;align=left;verticalAlign=top;spacingLeft=4;spacingRight=4;overflow=hidden;rotatable=0;points=[[0,0.5],[1,0.5]];portConstraint=eastwest;whiteSpace=wrap;html=1;" vertex="1" parent="JRfdcALgTeEqsGQP0QS9-6">
          <mxGeometry y="80" width="300" height="94" as="geometry" />
        </mxCell>
        <mxCell id="JRfdcALgTeEqsGQP0QS9-10" value="CommandWords" style="swimlane;fontStyle=1;align=center;verticalAlign=top;childLayout=stackLayout;horizontal=1;startSize=26;horizontalStack=0;resizeParent=1;resizeParentMax=0;resizeLast=0;collapsible=1;marginBottom=0;whiteSpace=wrap;html=1;" vertex="1" parent="WIyWlLk6GJQsqaUBKTNV-1">
          <mxGeometry x="70" y="910" width="220" height="126" as="geometry" />
        </mxCell>
        <mxCell id="JRfdcALgTeEqsGQP0QS9-11" value="&lt;u&gt;- VALIDCOMMANDS: String[]&amp;nbsp;&lt;/u&gt;" style="text;strokeColor=none;fillColor=none;align=left;verticalAlign=top;spacingLeft=4;spacingRight=4;overflow=hidden;rotatable=0;points=[[0,0.5],[1,0.5]];portConstraint=eastwest;whiteSpace=wrap;html=1;" vertex="1" parent="JRfdcALgTeEqsGQP0QS9-10">
          <mxGeometry y="26" width="220" height="26" as="geometry" />
        </mxCell>
        <mxCell id="JRfdcALgTeEqsGQP0QS9-12" value="" style="line;strokeWidth=1;fillColor=none;align=left;verticalAlign=middle;spacingTop=-1;spacingLeft=3;spacingRight=3;rotatable=0;labelPosition=right;points=[];portConstraint=eastwest;strokeColor=inherit;" vertex="1" parent="JRfdcALgTeEqsGQP0QS9-10">
          <mxGeometry y="52" width="220" height="8" as="geometry" />
        </mxCell>
        <mxCell id="JRfdcALgTeEqsGQP0QS9-13" value="+ CommandWords()&lt;br&gt;+ isCommand(aString: String): boolean&lt;br&gt;+ getCommandList(): String" style="text;strokeColor=none;fillColor=none;align=left;verticalAlign=top;spacingLeft=4;spacingRight=4;overflow=hidden;rotatable=0;points=[[0,0.5],[1,0.5]];portConstraint=eastwest;whiteSpace=wrap;html=1;" vertex="1" parent="JRfdcALgTeEqsGQP0QS9-10">
          <mxGeometry y="60" width="220" height="66" as="geometry" />
        </mxCell>
        <mxCell id="JRfdcALgTeEqsGQP0QS9-14" value="Game" style="swimlane;fontStyle=1;align=center;verticalAlign=top;childLayout=stackLayout;horizontal=1;startSize=26;horizontalStack=0;resizeParent=1;resizeParentMax=0;resizeLast=0;collapsible=1;marginBottom=0;whiteSpace=wrap;html=1;" vertex="1" parent="WIyWlLk6GJQsqaUBKTNV-1">
          <mxGeometry x="620" y="90" width="300" height="426" as="geometry" />
        </mxCell>
        <mxCell id="JRfdcALgTeEqsGQP0QS9-15" value="- parser: Parser&lt;br&gt;- currentRoom: Room&lt;br&gt;- previousRoom: Room&lt;br&gt;- previousRooms: Stack&amp;lt;Room&amp;gt;&lt;br&gt;- currentItem: Item&lt;br&gt;- numberOfPickups: int&lt;br&gt;- PICKUPS_PER_APPLE: int = 5&lt;br&gt;- chargedRoom: Room" style="text;strokeColor=none;fillColor=none;align=left;verticalAlign=top;spacingLeft=4;spacingRight=4;overflow=hidden;rotatable=0;points=[[0,0.5],[1,0.5]];portConstraint=eastwest;whiteSpace=wrap;html=1;" vertex="1" parent="JRfdcALgTeEqsGQP0QS9-14">
          <mxGeometry y="26" width="300" height="126" as="geometry" />
        </mxCell>
        <mxCell id="JRfdcALgTeEqsGQP0QS9-16" value="" style="line;strokeWidth=1;fillColor=none;align=left;verticalAlign=middle;spacingTop=-1;spacingLeft=3;spacingRight=3;rotatable=0;labelPosition=right;points=[];portConstraint=eastwest;strokeColor=inherit;" vertex="1" parent="JRfdcALgTeEqsGQP0QS9-14">
          <mxGeometry y="152" width="300" height="8" as="geometry" />
        </mxCell>
        <mxCell id="JRfdcALgTeEqsGQP0QS9-17" value="+ Game()&lt;br&gt;- createRooms: void&lt;br&gt;+ play(): void&lt;br&gt;- printWelcome(): void&lt;br&gt;- processCommand(command: Command): boolean&lt;br&gt;- printHelp(): void&lt;br&gt;- goRoom(command: Command): void&lt;br&gt;- quit(command: Command): boolean&lt;br&gt;- look(command: Command): void&lt;br&gt;- eat(command: Command): void&lt;br&gt;- back(command: Command): void&lt;br&gt;- stackBack(command: Command): void&lt;br&gt;- take(command: Command): void&lt;br&gt;- drop(command: Command): void&lt;br&gt;- printRoomAndCarry(): void&lt;br&gt;- charge(command: Command): void&lt;br&gt;- fire(command: Command): void" style="text;strokeColor=none;fillColor=none;align=left;verticalAlign=top;spacingLeft=4;spacingRight=4;overflow=hidden;rotatable=0;points=[[0,0.5],[1,0.5]];portConstraint=eastwest;whiteSpace=wrap;html=1;" vertex="1" parent="JRfdcALgTeEqsGQP0QS9-14">
          <mxGeometry y="160" width="300" height="266" as="geometry" />
        </mxCell>
        <mxCell id="JRfdcALgTeEqsGQP0QS9-18" value="Item" style="swimlane;fontStyle=1;align=center;verticalAlign=top;childLayout=stackLayout;horizontal=1;startSize=26;horizontalStack=0;resizeParent=1;resizeParentMax=0;resizeLast=0;collapsible=1;marginBottom=0;whiteSpace=wrap;html=1;" vertex="1" parent="WIyWlLk6GJQsqaUBKTNV-1">
          <mxGeometry x="450" y="870" width="320" height="160" as="geometry" />
        </mxCell>
        <mxCell id="JRfdcALgTeEqsGQP0QS9-19" value="- description: String&lt;br&gt;- weight: double&lt;br&gt;- name: String" style="text;strokeColor=none;fillColor=none;align=left;verticalAlign=top;spacingLeft=4;spacingRight=4;overflow=hidden;rotatable=0;points=[[0,0.5],[1,0.5]];portConstraint=eastwest;whiteSpace=wrap;html=1;" vertex="1" parent="JRfdcALgTeEqsGQP0QS9-18">
          <mxGeometry y="26" width="320" height="62" as="geometry" />
        </mxCell>
        <mxCell id="JRfdcALgTeEqsGQP0QS9-20" value="" style="line;strokeWidth=1;fillColor=none;align=left;verticalAlign=middle;spacingTop=-1;spacingLeft=3;spacingRight=3;rotatable=0;labelPosition=right;points=[];portConstraint=eastwest;strokeColor=inherit;" vertex="1" parent="JRfdcALgTeEqsGQP0QS9-18">
          <mxGeometry y="88" width="320" height="8" as="geometry" />
        </mxCell>
        <mxCell id="JRfdcALgTeEqsGQP0QS9-21" value="+ Item(name: String, description: String, weight: double)&lt;br&gt;+ getDescription(): String&lt;br&gt;+ getName(): String" style="text;strokeColor=none;fillColor=none;align=left;verticalAlign=top;spacingLeft=4;spacingRight=4;overflow=hidden;rotatable=0;points=[[0,0.5],[1,0.5]];portConstraint=eastwest;whiteSpace=wrap;html=1;" vertex="1" parent="JRfdcALgTeEqsGQP0QS9-18">
          <mxGeometry y="96" width="320" height="64" as="geometry" />
        </mxCell>
        <mxCell id="JRfdcALgTeEqsGQP0QS9-22" value="Parser" style="swimlane;fontStyle=1;align=center;verticalAlign=top;childLayout=stackLayout;horizontal=1;startSize=26;horizontalStack=0;resizeParent=1;resizeParentMax=0;resizeLast=0;collapsible=1;marginBottom=0;whiteSpace=wrap;html=1;" vertex="1" parent="WIyWlLk6GJQsqaUBKTNV-1">
          <mxGeometry x="80" y="230" width="180" height="146" as="geometry" />
        </mxCell>
        <mxCell id="JRfdcALgTeEqsGQP0QS9-23" value="- commands: CommandWords&lt;br&gt;- reader: Scanner" style="text;strokeColor=none;fillColor=none;align=left;verticalAlign=top;spacingLeft=4;spacingRight=4;overflow=hidden;rotatable=0;points=[[0,0.5],[1,0.5]];portConstraint=eastwest;whiteSpace=wrap;html=1;" vertex="1" parent="JRfdcALgTeEqsGQP0QS9-22">
          <mxGeometry y="26" width="180" height="46" as="geometry" />
        </mxCell>
        <mxCell id="JRfdcALgTeEqsGQP0QS9-24" value="" style="line;strokeWidth=1;fillColor=none;align=left;verticalAlign=middle;spacingTop=-1;spacingLeft=3;spacingRight=3;rotatable=0;labelPosition=right;points=[];portConstraint=eastwest;strokeColor=inherit;" vertex="1" parent="JRfdcALgTeEqsGQP0QS9-22">
          <mxGeometry y="72" width="180" height="8" as="geometry" />
        </mxCell>
        <mxCell id="JRfdcALgTeEqsGQP0QS9-25" value="+ Parser()&lt;br&gt;+ getCommand(): Command&lt;br&gt;+ getCommands(): String" style="text;strokeColor=none;fillColor=none;align=left;verticalAlign=top;spacingLeft=4;spacingRight=4;overflow=hidden;rotatable=0;points=[[0,0.5],[1,0.5]];portConstraint=eastwest;whiteSpace=wrap;html=1;" vertex="1" parent="JRfdcALgTeEqsGQP0QS9-22">
          <mxGeometry y="80" width="180" height="66" as="geometry" />
        </mxCell>
        <mxCell id="JRfdcALgTeEqsGQP0QS9-26" value="Room" style="swimlane;fontStyle=1;align=center;verticalAlign=top;childLayout=stackLayout;horizontal=1;startSize=26;horizontalStack=0;resizeParent=1;resizeParentMax=0;resizeLast=0;collapsible=1;marginBottom=0;whiteSpace=wrap;html=1;" vertex="1" parent="WIyWlLk6GJQsqaUBKTNV-1">
          <mxGeometry x="880" y="650" width="360" height="266" as="geometry" />
        </mxCell>
        <mxCell id="JRfdcALgTeEqsGQP0QS9-27" value="- description: String&lt;br&gt;- exits: HashMap&amp;lt;String, Room&amp;gt;&lt;br&gt;- items: ArrayList&amp;lt;Item&amp;gt;&lt;br&gt;&lt;u&gt;- rooms: ArrayList&amp;lt;Room&amp;gt; = new ArrayList&amp;lt;Room&amp;gt;()&lt;/u&gt;" style="text;strokeColor=none;fillColor=none;align=left;verticalAlign=top;spacingLeft=4;spacingRight=4;overflow=hidden;rotatable=0;points=[[0,0.5],[1,0.5]];portConstraint=eastwest;whiteSpace=wrap;html=1;" vertex="1" parent="JRfdcALgTeEqsGQP0QS9-26">
          <mxGeometry y="26" width="360" height="66" as="geometry" />
        </mxCell>
        <mxCell id="JRfdcALgTeEqsGQP0QS9-28" value="" style="line;strokeWidth=1;fillColor=none;align=left;verticalAlign=middle;spacingTop=-1;spacingLeft=3;spacingRight=3;rotatable=0;labelPosition=right;points=[];portConstraint=eastwest;strokeColor=inherit;" vertex="1" parent="JRfdcALgTeEqsGQP0QS9-26">
          <mxGeometry y="92" width="360" height="8" as="geometry" />
        </mxCell>
        <mxCell id="JRfdcALgTeEqsGQP0QS9-29" value="+ Room(description: String)&lt;br&gt;+ setExit(direction: String, neighbour: String): void&lt;br&gt;+ getShortDescription(): String&lt;br&gt;+&amp;nbsp;getLongDescription(): String&lt;br&gt;- getExitString(): String&lt;br&gt;+ getExit(direction: String): Room&lt;br&gt;+ addItem(name: String, description: String, weight: double): void&lt;br&gt;+ addItem(item: Item): void&lt;br&gt;+ removeItem(name: String): Item&lt;br&gt;&lt;u&gt;+ getRooms(): ArrayList&amp;lt;Room&amp;gt;&lt;/u&gt;" style="text;strokeColor=none;fillColor=none;align=left;verticalAlign=top;spacingLeft=4;spacingRight=4;overflow=hidden;rotatable=0;points=[[0,0.5],[1,0.5]];portConstraint=eastwest;whiteSpace=wrap;html=1;" vertex="1" parent="JRfdcALgTeEqsGQP0QS9-26">
          <mxGeometry y="100" width="360" height="166" as="geometry" />
        </mxCell>
        <mxCell id="JRfdcALgTeEqsGQP0QS9-30" value="TransporterRoom" style="swimlane;fontStyle=1;align=center;verticalAlign=top;childLayout=stackLayout;horizontal=1;startSize=26;horizontalStack=0;resizeParent=1;resizeParentMax=0;resizeLast=0;collapsible=1;marginBottom=0;whiteSpace=wrap;html=1;" vertex="1" parent="WIyWlLk6GJQsqaUBKTNV-1">
          <mxGeometry x="940" y="980" width="240" height="106" as="geometry" />
        </mxCell>
        <mxCell id="JRfdcALgTeEqsGQP0QS9-31" value="- randRoom: Random" style="text;strokeColor=none;fillColor=none;align=left;verticalAlign=top;spacingLeft=4;spacingRight=4;overflow=hidden;rotatable=0;points=[[0,0.5],[1,0.5]];portConstraint=eastwest;whiteSpace=wrap;html=1;" vertex="1" parent="JRfdcALgTeEqsGQP0QS9-30">
          <mxGeometry y="26" width="240" height="26" as="geometry" />
        </mxCell>
        <mxCell id="JRfdcALgTeEqsGQP0QS9-32" value="" style="line;strokeWidth=1;fillColor=none;align=left;verticalAlign=middle;spacingTop=-1;spacingLeft=3;spacingRight=3;rotatable=0;labelPosition=right;points=[];portConstraint=eastwest;strokeColor=inherit;" vertex="1" parent="JRfdcALgTeEqsGQP0QS9-30">
          <mxGeometry y="52" width="240" height="8" as="geometry" />
        </mxCell>
        <mxCell id="JRfdcALgTeEqsGQP0QS9-33" value="+ TransporterRoom(description: String)&lt;br&gt;+ getExit(direction: String): Room" style="text;strokeColor=none;fillColor=none;align=left;verticalAlign=top;spacingLeft=4;spacingRight=4;overflow=hidden;rotatable=0;points=[[0,0.5],[1,0.5]];portConstraint=eastwest;whiteSpace=wrap;html=1;" vertex="1" parent="JRfdcALgTeEqsGQP0QS9-30">
          <mxGeometry y="60" width="240" height="46" as="geometry" />
        </mxCell>
        <mxCell id="JRfdcALgTeEqsGQP0QS9-37" value="Extends" style="endArrow=block;endSize=16;endFill=0;html=1;rounded=0;exitX=0.5;exitY=0;exitDx=0;exitDy=0;entryX=0.497;entryY=1.012;entryDx=0;entryDy=0;entryPerimeter=0;" edge="1" parent="WIyWlLk6GJQsqaUBKTNV-1" source="JRfdcALgTeEqsGQP0QS9-30" target="JRfdcALgTeEqsGQP0QS9-29">
          <mxGeometry width="160" relative="1" as="geometry">
            <mxPoint x="950" y="640" as="sourcePoint" />
            <mxPoint x="1110" y="640" as="targetPoint" />
          </mxGeometry>
        </mxCell>
        <mxCell id="JRfdcALgTeEqsGQP0QS9-38" value="Extends" style="endArrow=block;endSize=16;endFill=0;html=1;rounded=0;exitX=0.5;exitY=0;exitDx=0;exitDy=0;" edge="1" parent="WIyWlLk6GJQsqaUBKTNV-1" source="JRfdcALgTeEqsGQP0QS9-0" target="JRfdcALgTeEqsGQP0QS9-21">
          <mxGeometry width="160" relative="1" as="geometry">
            <mxPoint x="632.92" y="920" as="sourcePoint" />
            <mxPoint x="660" y="810" as="targetPoint" />
          </mxGeometry>
        </mxCell>
        <mxCell id="JRfdcALgTeEqsGQP0QS9-45" value="1" style="endArrow=open;endSize=12;startArrow=diamondThin;startSize=14;startFill=1;edgeStyle=orthogonalEdgeStyle;align=left;verticalAlign=bottom;rounded=0;entryX=0.25;entryY=0;entryDx=0;entryDy=0;exitX=0.727;exitY=1;exitDx=0;exitDy=0;exitPerimeter=0;strokeColor=default;html=1;" edge="1" parent="WIyWlLk6GJQsqaUBKTNV-1" source="JRfdcALgTeEqsGQP0QS9-17" target="JRfdcALgTeEqsGQP0QS9-26">
          <mxGeometry x="-1" y="3" relative="1" as="geometry">
            <mxPoint x="830" y="610" as="sourcePoint" />
            <mxPoint x="919.5" y="590" as="targetPoint" />
          </mxGeometry>
        </mxCell>
        <mxCell id="JRfdcALgTeEqsGQP0QS9-46" value="" style="endArrow=none;html=1;edgeStyle=orthogonalEdgeStyle;rounded=0;entryX=0.5;entryY=0;entryDx=0;entryDy=0;" edge="1" parent="WIyWlLk6GJQsqaUBKTNV-1" source="JRfdcALgTeEqsGQP0QS9-29" target="JRfdcALgTeEqsGQP0QS9-18">
          <mxGeometry relative="1" as="geometry">
            <mxPoint x="540" y="810" as="sourcePoint" />
            <mxPoint x="610" y="860" as="targetPoint" />
          </mxGeometry>
        </mxCell>
        <mxCell id="JRfdcALgTeEqsGQP0QS9-47" value="parent" style="edgeLabel;resizable=0;html=1;align=left;verticalAlign=bottom;" connectable="0" vertex="1" parent="JRfdcALgTeEqsGQP0QS9-46">
          <mxGeometry x="-1" relative="1" as="geometry">
            <mxPoint x="-35" y="-5" as="offset" />
          </mxGeometry>
        </mxCell>
        <mxCell id="JRfdcALgTeEqsGQP0QS9-48" value="child" style="edgeLabel;resizable=0;html=1;align=right;verticalAlign=bottom;" connectable="0" vertex="1" parent="JRfdcALgTeEqsGQP0QS9-46">
          <mxGeometry x="1" relative="1" as="geometry" />
        </mxCell>
      </root>
    </mxGraphModel>
  </diagram>
</mxfile>
